<svg width="16" height="23" viewBox="0 0 16 23" fill="none" xmlns="http://www.w3.org/2000/svg">
<g clip-path="url(#clip0_1_225)">
<g clip-path="url(#clip1_1_225)">
<g clip-path="url(#clip2_1_225)">
<path d="M8.08 18.16C6.84391 18.16 5.63558 17.7934 4.6078 17.1067C3.58003 16.42 2.77898 15.4439 2.30595 14.3019C1.83291 13.1599 1.70915 11.9033 1.9503 10.6909C2.19145 9.47858 2.78668 8.36497 3.66073 7.49093C4.53478 6.61688 5.64839 6.02164 6.86073 5.78049C8.07307 5.53934 9.32969 5.66311 10.4717 6.13614C11.6137 6.60917 12.5898 7.41022 13.2765 8.438C13.9633 9.46577 14.3298 10.6741 14.3298 11.9102C14.3298 13.5677 13.6713 15.1574 12.4993 16.3295C11.3272 17.5015 9.73755 18.16 8.08 18.16ZM8.70014 11.9102V8.78592H7.4549V13.1604H11.2055V11.9102H8.70014Z" fill="#C8C6C2"/>
</g>
</g>
</g>
<defs>
<clipPath id="clip0_1_225">
<rect width="15" height="22" fill="white" transform="translate(0.580002 0.910156)"/>
</clipPath>
<clipPath id="clip1_1_225">
<rect width="15" height="22" fill="white" transform="translate(0.580002 0.910156)"/>
</clipPath>
<clipPath id="clip2_1_225">
<rect width="15" height="15" fill="white" transform="translate(0.580002 4.41016)"/>
</clipPath>
</defs>
</svg>
